<svg width="2320" height="207" viewBox="0 0 2320 207" fill="none" xmlns="http://www.w3.org/2000/svg">
<path d="M2320 82.68C2320 54.0478 2320 39.7317 2314.52 28.7571C2309.48 18.684 2301.32 10.5169 2291.24 5.48368C2280.27 0 2265.95 0 2237.32 0H1026.78H356.112C334.405 0 323.552 0 314.359 3.62445C305.894 6.9621 298.453 12.4626 292.779 19.5764C286.618 27.3016 283.435 37.6776 277.068 58.4296L274.217 67.7234C270.299 80.4939 268.34 86.8791 264.548 91.633C261.057 96.0108 256.478 99.3957 251.268 101.45C245.611 103.68 238.932 103.68 225.574 103.68H82.6799C54.0479 103.68 39.7317 103.68 28.7571 109.164C18.6841 114.197 10.5168 122.364 5.48364 132.437C0 143.412 0 157.728 0 186.36V207H1165.74H2320V82.68Z" fill="white"/>
</svg>
