<svg width="1280" height="160" viewBox="0 0 1280 160" fill="none" xmlns="http://www.w3.org/2000/svg">
<path d="M1280 82.68C1280 54.0478 1280 39.7317 1274.52 28.7571C1269.48 18.684 1261.32 10.5169 1251.24 5.48368C1240.27 0 1225.95 0 1197.32 0H660.916H290.809C271.496 0 261.839 0 253.401 2.99499C245.622 5.756 238.612 10.3294 232.95 16.3368C226.809 22.8534 222.883 31.7722 215.03 49.61C210.198 60.5871 207.782 66.0756 204.002 70.0858C200.519 73.7827 196.205 76.597 191.417 78.2961C186.224 80.1392 180.282 80.1392 168.397 80.1392H79.8608C53.8834 80.1392 40.8947 80.1392 30.7583 84.6757C19.0922 89.8967 9.75745 99.2313 4.5365 110.897C0 121.034 0 134.023 0 160H750.363H1280V82.68Z" fill="white"/>
</svg>
