<svg width="375" height="90" viewBox="0 0 375 90" fill="none" xmlns="http://www.w3.org/2000/svg">
<path d="M24.8608 65.149H122.232C133.687 65.149 139.414 65.149 144.383 63.4759C150.295 61.4849 155.497 57.809 159.348 52.9004C162.584 48.7754 164.496 43.3768 168.321 32.5795L168.321 32.5794C172.145 21.782 174.058 16.3834 177.294 12.2583C181.145 7.34969 186.346 3.67381 192.259 1.68288C197.228 0.00976562 202.955 0.00976562 214.41 0.00976562H324.12C341.74 0.00976562 350.55 0.00976562 357.303 3.38434C363.502 6.48172 368.528 11.5076 371.625 17.7064C375 24.46 375 33.2699 375 50.8898V90.0098H0C0 76.2795 11.1306 65.149 24.8608 65.149Z" fill="white"/>
</svg>
