<svg xmlns="http://www.w3.org/2000/svg" width="1176" height="160" viewBox="0 0 1176 160" fill="currentColor">
    <path d="M1176 82.68C1176 54.0478 1176 39.7317 1170.52 28.7571C1165.48 18.684 1157.32 10.5169 1147.24 5.48368C1136.27 0 1121.95 0 1093.32 0H743.531H317.795C299.368 0 290.155 0 282.014 2.7677C274.507 5.32017 267.683 9.55577 262.064 15.1506C255.971 21.2171 251.882 29.4734 243.704 45.9861L240.805 51.84C235.772 62.0017 233.256 67.0825 229.506 70.8158C226.048 74.2587 221.849 76.8652 217.229 78.436C212.219 80.1392 206.549 80.1392 195.21 80.1392H79.8608C53.8834 80.1392 40.8948 80.1392 30.7583 84.6757C19.0922 89.8967 9.75745 99.2313 4.5365 110.897C0 121.034 0 134.023 0 160H844.159H1176V82.68Z" fill="white"/>
</svg>