<svg xmlns="http://www.w3.org/2000/svg" width="696" height="160" viewBox="0 0 696 160" fill="currentColor">
    <path d="M150.805 51.84L153.704 45.9861L153.704 45.9851C161.882 29.4731 165.971 21.217 172.064 15.1506C177.683 9.55577 184.507 5.32017 192.014 2.7677C200.155 0 209.368 0 227.795 0H613.32C641.952 0 656.268 0 667.243 5.48368C677.316 10.5169 685.483 18.684 690.516 28.7571C696 39.7317 696 54.0478 696 82.68V160H364.159H0C0 134.023 0 121.034 4.53644 110.897C9.75751 99.2313 19.0922 89.8967 30.7582 84.6757C40.8947 80.1392 53.8834 80.1392 79.8608 80.1392H105.21C116.549 80.1392 122.219 80.1392 127.229 78.436C131.849 76.8652 136.048 74.2587 139.506 70.8158C143.256 67.0826 145.772 62.002 150.804 51.841L150.805 51.84Z" fill="white"/>
</svg>