<svg xmlns="http://www.w3.org/2000/svg" width="944" height="160" viewBox="0 0 944 160" fill="currentColor">
    <path d="M944 82.68C944 54.0478 944 39.7317 938.516 28.7571C933.483 18.684 925.316 10.5169 915.243 5.48368C904.268 0 889.952 0 861.32 0H743.531H317.795C299.368 0 290.155 0 282.014 2.7677C274.507 5.32017 267.683 9.55577 262.064 15.1506C255.971 21.2171 251.882 29.4734 243.704 45.9861L240.805 51.84C235.772 62.0017 233.256 67.0825 229.506 70.8158C226.048 74.2587 221.849 76.8652 217.229 78.436C212.219 80.1392 206.549 80.1392 195.21 80.1392H79.8609C53.8834 80.1392 40.8947 80.1392 30.7582 84.6757C19.0922 89.8967 9.75751 99.2313 4.53644 110.897C0 121.034 0 134.023 0 160H844.159H944V82.68Z" fill="white"/>
</svg>