<svg width="201" height="115" viewBox="0 0 201 115" fill="none" xmlns="http://www.w3.org/2000/svg">
<path d="M49.1999 50.5267C46.9978 50.5267 45.1994 51.3219 44.0372 52.9491C44.343 49.9762 45.5297 48.5081 48.5271 48.0555L54.1914 47.1624V43.2842L48.0989 44.3485C41.8595 45.3884 39.9388 49.548 39.9388 56.4969C39.9388 62.7363 42.9606 66.431 48.3191 66.431C53.1148 66.431 56.0877 62.7608 56.0877 58.3565C56.0877 53.6097 53.335 50.5267 49.1999 50.5267ZM48.0989 62.6996C45.7744 62.6996 44.4898 60.8278 44.4898 58.3321C44.4898 55.9097 45.8356 54.1725 48.1356 54.1725C50.3622 54.1725 51.6223 55.9709 51.6223 58.3565C51.6223 60.7422 50.3989 62.6996 48.0989 62.6996ZM13.9047 55.0533L21.0005 66.064H15.6787L10.9441 58.3321L6.23397 66.064H0.997803L8.09355 55.0533L1.05897 44.0427H6.41748L11.0664 51.5055L15.7765 44.0427H20.9393L13.9047 55.0533ZM23.1292 55.0533C23.5574 52.3374 25.9185 49.8906 30.0414 49.8906C34.1154 49.8906 36.8313 51.8725 36.8313 55.7262V66.064H32.7084V64.3512C32.1434 65.0389 31.4255 65.5851 30.612 65.9461C29.7985 66.3072 28.9118 66.4733 28.0228 66.431C24.9643 66.431 22.5175 64.5959 22.5175 61.415C22.5175 58.173 24.9643 56.3134 29.0015 56.3134H32.4638V55.5794C32.4638 54.1113 31.3627 53.3406 29.8579 53.3406C28.3287 53.3406 27.5334 54.2214 27.2888 55.0533H23.1292ZM26.9829 61.2071C26.9829 62.3081 27.876 62.981 29.2462 62.981C30.959 62.981 32.4638 61.9289 32.4638 60.0938V59.3964H29.3441C27.9616 59.3964 26.9829 60.0693 26.9829 61.1948V61.2071ZM63.3792 52.0927C64.1744 50.8938 65.6792 49.8906 68.0037 49.8906C71.7595 49.8906 74.8547 52.8757 74.8547 58.173C74.8547 63.3725 71.7595 66.431 67.8813 66.431C65.8627 66.431 64.3579 65.6358 63.5627 64.5347V72.181H59.0973V50.1597H63.3792V52.0927ZM63.4771 58.2342C63.4771 60.9012 64.8473 62.5773 66.9271 62.5773C69.0068 62.5773 70.3526 60.8645 70.3526 58.173C70.3526 55.4815 69.0068 53.7321 66.9271 53.7321C64.8473 53.7321 63.4771 55.4448 63.4771 58.1118V58.2342ZM101.341 66.064L90.9425 54.8331L101.158 44.5321H97.6223L88.0797 54.1358V44.5321H85.3515V66.064H88.0797V55.7874L97.7446 66.064H101.354H101.341ZM109.575 50.3065C106.052 50.3065 103.911 52.3007 103.421 54.6863H105.966C106.394 53.5485 107.495 52.631 109.514 52.631C111.496 52.631 113 53.7076 113 55.8485V56.8884H108.902C105.134 56.8884 102.846 58.6868 102.846 61.6597C102.846 64.5959 105.171 66.3943 108.168 66.3943C110.125 66.3943 111.961 65.6602 113.123 64.2289V66.064H115.594V55.8485C115.594 52.3863 113.184 50.3065 109.575 50.3065ZM108.498 64.1065C106.786 64.1065 105.501 63.2501 105.501 61.6352C105.501 59.9714 106.945 59.115 109.049 59.115H113V60.2528C113 62.614 110.945 64.1065 108.498 64.1065ZM122.567 52.8512C123.338 51.5299 124.965 50.3065 127.62 50.3065C131.107 50.3065 134.569 52.9491 134.569 58.3565C134.569 63.8007 131.082 66.3943 127.535 66.3943C125.051 66.3943 123.399 65.2932 122.665 64.1677V71.8996H120.035V50.6491H122.58V52.8512H122.567ZM122.567 58.4177C122.567 61.8432 124.439 64.0087 127.29 64.0087C130.042 64.0087 131.878 61.7209 131.878 58.3565C131.878 54.9922 130.042 52.6922 127.29 52.6922C124.439 52.6922 122.58 54.8698 122.58 58.2954V58.4177H122.567ZM144.32 55.6283H140.857V50.6491H138.227V66.064H144.283C147.586 66.064 149.727 63.8007 149.727 60.8033C149.727 57.806 147.586 55.6406 144.32 55.6406V55.6283ZM143.977 63.7395H140.857V57.9528H143.977C145.996 57.9528 147.097 59.1517 147.097 60.8033C147.097 62.4549 145.996 63.7395 143.977 63.7395ZM166.316 57.806V59.1517H155.086V59.2129C155.086 61.9656 156.982 64.0454 159.832 64.0454C161.973 64.0454 163.197 62.8831 163.466 62.0879H166.133C165.729 63.8985 163.808 66.3943 159.796 66.3943C155.33 66.3943 152.333 63.3113 152.333 58.3565C152.333 53.3773 155.367 50.3065 159.588 50.3065C163.686 50.3065 166.316 53.2182 166.316 57.806ZM163.649 56.9251C163.527 54.2581 161.998 52.6677 159.527 52.6677C156.957 52.6677 155.33 54.3805 155.122 56.9129H163.649V56.9251ZM177.559 50.3188C174.905 50.3188 173.278 51.5422 172.519 52.8512V50.6491H169.974V71.9118H172.605V64.1677C173.339 65.3055 174.99 66.3943 177.474 66.3943C181.022 66.3943 184.508 63.8007 184.508 58.3565C184.508 52.9491 181.046 50.3065 177.559 50.3065V50.3188ZM177.229 64.0209C174.379 64.0209 172.519 61.8432 172.519 58.4177V58.2954C172.519 54.8698 174.379 52.6922 177.229 52.6922C179.982 52.6922 181.817 54.9922 181.817 58.3565C181.817 61.7209 179.982 64.0209 177.229 64.0209ZM187.799 54.6863C188.289 52.3007 190.43 50.3065 193.953 50.3065C197.562 50.3065 199.972 52.3863 199.972 55.8485V66.064H197.501V64.2289C196.889 64.937 196.127 65.499 195.269 65.8738C194.412 66.2485 193.481 66.4264 192.546 66.3943C189.549 66.3943 187.224 64.5959 187.224 61.6597C187.224 58.6868 189.512 56.8884 193.28 56.8884H197.379V55.8485C197.379 53.7076 195.874 52.631 193.892 52.631C191.873 52.631 190.772 53.5485 190.344 54.6863H187.799ZM189.879 61.6352C189.879 63.2501 191.164 64.1065 192.877 64.1065C195.323 64.1065 197.379 62.614 197.379 60.2528V59.115H193.427C191.323 59.115 189.879 59.9714 189.879 61.623V61.6352Z" fill="#B8BECB"/>
</svg>
