<svg width="201" height="115" viewBox="0 0 201 115" fill="none" xmlns="http://www.w3.org/2000/svg">
<g clip-path="url(#clip0_5251_18701)">
<path d="M49.2002 50.5277C46.998 50.5277 45.1996 51.3229 44.0374 52.9501C44.3433 49.9772 45.53 48.5091 48.5273 48.0564L54.1917 47.1633V43.2852L48.0991 44.3495C41.8597 45.3894 39.939 49.549 39.939 56.4979C39.939 62.7373 42.9608 66.432 48.3193 66.432C53.1151 66.432 56.0879 62.7618 56.0879 58.3575C56.0879 53.6107 53.3353 50.5277 49.2002 50.5277ZM48.0991 62.7006C45.7746 62.7006 44.4901 60.8288 44.4901 58.333C44.4901 55.9107 45.8358 54.1735 48.1358 54.1735C50.3624 54.1735 51.6225 55.9719 51.6225 58.3575C51.6225 60.7431 50.3991 62.7006 48.0991 62.7006ZM13.905 55.0543L21.0007 66.0649H15.6789L10.9443 58.333L6.23422 66.0649H0.998047L8.09379 55.0543L1.05922 44.0437H6.41773L11.0667 51.5064L15.7768 44.0437H20.9395L13.905 55.0543ZM23.1294 55.0543C23.5576 52.3383 25.9188 49.8915 30.0417 49.8915C34.1156 49.8915 36.8316 51.8735 36.8316 55.7272V66.0649H32.7087V64.3522C32.1436 65.0399 31.4257 65.586 30.6122 65.9471C29.7987 66.3082 28.9121 66.4742 28.023 66.432C24.9645 66.432 22.5177 64.5969 22.5177 61.416C22.5177 58.174 24.9645 56.3144 29.0018 56.3144H32.464V55.5804C32.464 54.1123 31.3629 53.3415 29.8582 53.3415C28.3289 53.3415 27.5337 54.2224 27.289 55.0543H23.1294ZM26.9832 61.208C26.9832 62.3091 27.8762 62.982 29.2465 62.982C30.9592 62.982 32.464 61.9298 32.464 60.0947V59.3974H29.3443C27.9619 59.3974 26.9832 60.0703 26.9832 61.1958V61.208ZM63.3794 52.0937C64.1746 50.8947 65.6794 49.8915 68.0039 49.8915C71.7598 49.8915 74.855 52.8766 74.855 58.174C74.855 63.3735 71.7598 66.432 67.8816 66.432C65.8629 66.432 64.3582 65.6368 63.5629 64.5357V72.182H59.0975V50.1607H63.3794V52.0937ZM63.4773 58.2352C63.4773 60.9022 64.8475 62.5782 66.9273 62.5782C69.0071 62.5782 70.3528 60.8655 70.3528 58.174C70.3528 55.4825 69.0071 53.733 66.9273 53.733C64.8475 53.733 63.4773 55.4458 63.4773 58.1128V58.2352ZM101.342 66.0649L90.9427 54.8341L101.158 44.533H97.6225L88.08 54.1368V44.533H85.3518V66.0649H88.08V55.7883L97.7449 66.0649H101.354H101.342ZM109.575 50.3075C106.052 50.3075 103.911 52.3016 103.421 54.6873H105.966C106.394 53.5495 107.495 52.632 109.514 52.632C111.496 52.632 113.001 53.7086 113.001 55.8495V56.8894H108.902C105.134 56.8894 102.846 58.6878 102.846 61.6607C102.846 64.5969 105.171 66.3953 108.168 66.3953C110.126 66.3953 111.961 65.6612 113.123 64.2298V66.0649H115.594V55.8495C115.594 52.3873 113.184 50.3075 109.575 50.3075ZM108.499 64.1075C106.786 64.1075 105.501 63.2511 105.501 61.6362C105.501 59.9724 106.945 59.116 109.049 59.116H113.001V60.2538C113.001 62.6149 110.945 64.1075 108.499 64.1075ZM122.568 52.8522C123.338 51.5309 124.966 50.3075 127.62 50.3075C131.107 50.3075 134.569 52.9501 134.569 58.3575C134.569 63.8016 131.083 66.3953 127.535 66.3953C125.051 66.3953 123.4 65.2942 122.666 64.1687V71.9006H120.035V50.6501H122.58V52.8522H122.568ZM122.568 58.4187C122.568 61.8442 124.44 64.0096 127.29 64.0096C130.043 64.0096 131.878 61.7219 131.878 58.3575C131.878 54.9931 130.043 52.6931 127.29 52.6931C124.44 52.6931 122.58 54.8708 122.58 58.2963V58.4187H122.568ZM144.32 55.6293H140.858V50.6501H138.227V66.0649H144.283C147.586 66.0649 149.727 63.8016 149.727 60.8043C149.727 57.807 147.586 55.6415 144.32 55.6415V55.6293ZM143.977 63.7405H140.858V57.9538H143.977C145.996 57.9538 147.097 59.1527 147.097 60.8043C147.097 62.4559 145.996 63.7405 143.977 63.7405ZM166.317 57.807V59.1527H155.086V59.2139C155.086 61.9665 156.982 64.0463 159.833 64.0463C161.974 64.0463 163.197 62.8841 163.466 62.0889H166.133C165.729 63.8995 163.809 66.3953 159.796 66.3953C155.331 66.3953 152.333 63.3123 152.333 58.3575C152.333 53.3782 155.367 50.3075 159.588 50.3075C163.686 50.3075 166.317 53.2192 166.317 57.807ZM163.65 56.9261C163.527 54.2591 161.998 52.6687 159.527 52.6687C156.958 52.6687 155.331 54.3814 155.123 56.9139H163.65V56.9261ZM177.56 50.3197C174.905 50.3197 173.278 51.5431 172.519 52.8522V50.6501H169.975V71.9128H172.605V64.1687C173.339 65.3064 174.991 66.3953 177.474 66.3953C181.022 66.3953 184.509 63.8016 184.509 58.3575C184.509 52.9501 181.046 50.3075 177.56 50.3075V50.3197ZM177.229 64.0219C174.379 64.0219 172.519 61.8442 172.519 58.4187V58.2963C172.519 54.8708 174.379 52.6931 177.229 52.6931C179.982 52.6931 181.817 54.9931 181.817 58.3575C181.817 61.7219 179.982 64.0219 177.229 64.0219ZM187.8 54.6873C188.289 52.3016 190.43 50.3075 193.953 50.3075C197.562 50.3075 199.973 52.3873 199.973 55.8495V66.0649H197.501V64.2298C196.89 64.938 196.127 65.5 195.27 65.8747C194.412 66.2495 193.482 66.4273 192.546 66.3953C189.549 66.3953 187.225 64.5969 187.225 61.6607C187.225 58.6878 189.512 56.8894 193.281 56.8894H197.379V55.8495C197.379 53.7086 195.874 52.632 193.892 52.632C191.874 52.632 190.773 53.5495 190.344 54.6873H187.8ZM189.879 61.6362C189.879 63.2511 191.164 64.1075 192.877 64.1075C195.324 64.1075 197.379 62.6149 197.379 60.2538V59.116H193.427C191.323 59.116 189.879 59.9724 189.879 61.624V61.6362Z" fill="#212529"/>
</g>
<defs>
<clipPath id="clip0_5251_18701">
<rect width="200.638" height="29.3617" fill="white" transform="translate(0.361816 42.8203)"/>
</clipPath>
</defs>
</svg>
