<svg viewBox="0 0 136 44" fill="none" xmlns="http://www.w3.org/2000/svg">
<g clip-path="url(#clip0_4051_9159)">
<path d="M6.05036 35.7334V21.4387V7.144H0V35.7334H6.05036Z" fill="#212529"/>
<path d="M23.2784 12.821C19.2581 12.821 17.2281 14.1688 15.7951 16.2109H15.5164V12.821H9.46607V35.7334H15.5164V24.706C15.5164 21.6021 16.2727 18.1713 21.527 18.1713C27.2987 18.1713 26.9405 22.5006 26.9405 24.2976V35.7334H32.951V24.2976C32.951 20.9486 32.7122 12.821 23.2784 12.821Z" fill="#212529"/>
<path d="M44.0221 18.1305H51.2666V12.9027H44.0221V6.28632H37.9319V12.9027H34.9864V18.1305H37.9319V27.3199C37.9319 30.6281 37.9319 35.7334 44.0221 35.7334C50.0724 35.7334 51.2666 35.325 51.2666 35.325V29.2803C45.4551 29.6071 44.0221 30.0563 44.0221 26.7481V26.258V18.1305Z" fill="#212529"/>
<path d="M76.8049 25.7271H77.0437C77.3622 22.5823 76.9641 17.7629 72.6652 14.7406V14.7814C70.7944 13.4337 68.2468 12.6168 65.1022 12.6168C57.5791 12.6168 53.1209 16.701 53.1209 24.1751C53.1209 31.8125 57.4597 35.7334 65.1022 35.7334C72.4264 35.7334 76.3273 32.7111 76.9243 27.7692H71.073C70.5157 29.2803 68.7245 30.3014 65.1022 30.3014C61.2014 30.3014 59.4101 28.7902 58.9723 25.7271H76.8049ZM65.1022 18.0488C69.4012 18.0488 70.5157 19.9275 70.9934 21.6429H59.2111C59.9276 19.3149 61.7586 18.0488 65.1022 18.0488Z" fill="#212529"/>
<path d="M84.9037 35.7334V6.368H78.8931V35.7334H84.9037Z" fill="#212529"/>
<path d="M99.2493 21.8471L98.7319 21.8063C94.831 21.1936 94.1543 20.6218 94.1543 19.6008C94.1543 18.9065 94.8708 17.6404 98.2542 17.6404C101.757 17.6404 103.27 18.6206 103.27 20.4176V20.6218H109.439V20.4176C109.439 16.9052 107.489 12.6985 98.2542 12.6985C89.6563 12.6985 87.8651 16.4968 87.8651 19.6825C87.8651 24.2568 91.8456 25.7271 98.2542 26.5848C98.5726 26.6256 98.8911 26.6665 99.2095 26.7073C101.638 26.9932 103.787 27.3199 103.787 29.0353C103.787 30.5464 101.478 30.8732 99.0503 30.8732C95.03 30.8732 93.597 29.9747 93.597 28.0142V27.81H87.3874V28.2593C87.3476 29.4437 87.3476 31.3633 88.9 32.9561C90.6912 34.794 94.1543 35.7334 99.2095 35.7334C106.056 35.7334 110.036 34.6306 110.036 28.9536C110.036 23.5216 104.305 22.6231 99.2493 21.8471Z" fill="#212529"/>
<path d="M129.531 12.8619L123.083 30.0972L116.594 12.8619H110.226L118.823 35.7742H120.973L117.709 44.4736H124.118L135.94 12.8619H129.531Z" fill="#212529"/>
<path d="M129.592 12.7599L123.143 29.9953L121.034 35.6723L117.77 44.3716H124.178L136 12.7599H129.592Z" fill="#8942FE"/>
<path d="M125.261 35.6723L116.653 12.7599H110.285L118.883 35.6723H125.261Z" fill="#212529"/>
</g>
<defs>
<clipPath id="clip0_4051_9159">
<rect width="136" height="44" fill="white"/>
</clipPath>
</defs>
</svg>
