<svg viewBox="0 0 72 24" fill="none" xmlns="http://www.w3.org/2000/svg">
<g clip-path="url(#clip0_4051_9545)">
<path d="M3.20313 19.5005V11.7034V3.9063H0V19.5005H3.20313Z" fill="white"/>
<path d="M12.3239 7.00287C10.1955 7.00287 9.12073 7.73802 8.3621 8.85189H8.21458V7.00287H5.01145V19.5005H8.21458V13.4856C8.21458 11.7925 8.61497 9.92121 11.3966 9.92121C14.4523 9.92121 14.2626 12.2826 14.2626 13.2628V19.5005H17.4447V13.2628C17.4447 11.4361 17.3182 7.00287 12.3239 7.00287Z" fill="white"/>
<path d="M23.3058 9.89893H27.1411V7.04742H23.3058V3.43848H20.0816V7.04742H18.5222V9.89893H20.0816V14.9114C20.0816 16.7158 20.0816 19.5005 23.3058 19.5005C26.5089 19.5005 27.1411 19.2777 27.1411 19.2777V15.9807C24.0644 16.1589 23.3058 16.4039 23.3058 14.5995V14.3321V9.89893Z" fill="white"/>
<path d="M40.6614 14.0425H40.7879C40.9565 12.3272 40.7457 9.69844 38.4698 8.04991V8.07218C37.4794 7.33703 36.1307 6.89148 34.4659 6.89148C30.4831 6.89148 28.1228 9.11922 28.1228 13.196C28.1228 17.3619 30.4198 19.5005 34.4659 19.5005C38.3434 19.5005 40.4086 17.852 40.7246 15.1564H37.6269C37.3319 15.9807 36.3836 16.5376 34.4659 16.5376C32.4007 16.5376 31.4524 15.7133 31.2206 14.0425H40.6614ZM34.4659 9.85438C36.7418 9.85438 37.3319 10.8791 37.5847 11.8148H31.3471C31.7264 10.545 32.6957 9.85438 34.4659 9.85438Z" fill="white"/>
<path d="M44.949 19.5005V3.48303H41.767V19.5005H44.949Z" fill="white"/>
<path d="M52.5438 11.9262L52.2698 11.9039C50.2046 11.5697 49.8464 11.2579 49.8464 10.7009C49.8464 10.3222 50.2257 9.6316 52.0169 9.6316C53.8714 9.6316 54.6722 10.1663 54.6722 11.1465V11.2579H57.9385V11.1465C57.9385 9.23061 56.9059 6.93603 52.0169 6.93603C47.4651 6.93603 46.5168 9.00784 46.5168 10.7455C46.5168 13.2406 48.6241 14.0425 52.0169 14.5104C52.1855 14.5326 52.3541 14.5549 52.5227 14.5772C53.8082 14.7331 54.9461 14.9114 54.9461 15.847C54.9461 16.6713 53.7239 16.8495 52.4384 16.8495C50.31 16.8495 49.5514 16.3594 49.5514 15.2901V15.1787H46.2639V15.4237C46.2429 16.0698 46.2429 17.1168 47.0647 17.9856C48.013 18.9881 49.8464 19.5005 52.5227 19.5005C56.1473 19.5005 58.2546 18.899 58.2546 15.8025C58.2546 12.8396 55.2201 12.3495 52.5438 11.9262Z" fill="white"/>
<path d="M68.5752 7.02514L65.1614 16.4262L61.7264 7.02514H58.3547L62.9065 19.5228H64.0445L62.3165 24.2679H65.7093L71.968 7.02514H68.5752Z" fill="white"/>
<path d="M68.6074 6.96973L65.1935 16.3708L64.0766 19.4674L62.3486 24.2125H65.7414L72.0002 6.96973H68.6074Z" fill="#8942FE"/>
<path d="M66.315 19.4674L61.758 6.96973H58.3862L62.9381 19.4674H66.315Z" fill="white"/>
</g>
<defs>
<clipPath id="clip0_4051_9545">
<rect width="72" height="24" fill="white" transform="translate(0 0.00976562)"/>
</clipPath>
</defs>
</svg>
