<svg width="375" height="115" viewBox="0 0 375 115" fill="none" xmlns="http://www.w3.org/2000/svg">
<path d="M45.2209 47.1423V42.7891H23.5259V47.1423H27.8791V51.4956H40.8675V55.8489H27.8791V60.1308H23.5259V64.4841V73.1907H27.8791H32.2324V64.4841H45.2209V60.1308H49.5741V55.8489V51.4956V47.1423H45.2209Z" fill="#E3000B"/>
<path d="M23.5261 47.1423V42.7891H1.83105V47.1423V51.4956H19.1728V55.8489H6.18434H1.83105V73.1907H6.18434H10.5376V64.4841H23.5261V60.1308H27.8793V55.8489V51.4956V47.1423H23.5261Z" fill="#020202"/>
<path d="M245.686 57.9894H257.104V61.7718H245.686V57.9894H241.903V73.1902H245.686V65.5541H257.104H260.887V57.9894V54.207H245.686V57.9894Z" fill="#E3000B"/>
<path d="M279.869 61.7718H268.451V54.207H264.668V65.5541H268.451H279.869V69.4078H264.668V73.1902H283.652V69.4078V54.207H279.869V61.7718Z" fill="#E3000B"/>
<path d="M302.563 61.7718H291.216V54.207H287.435V73.1902H291.216V65.5541H302.563V73.1902H306.417V54.207H302.563V61.7718Z" fill="#E3000B"/>
<path d="M310.2 54.207V73.1902H313.982H329.183V69.4078H313.982V65.5541H321.547V61.7718H313.982V57.9894H329.183V54.207H313.982H310.2Z" fill="#E3000B"/>
<path d="M332.965 57.9894V61.7718H336.748V57.9894H340.53V73.1902H344.312V57.9894H348.095V61.7718H351.877V57.9894V54.207H332.965V57.9894Z" fill="#E3000B"/>
<path d="M359.513 54.207V57.9894H370.86V61.7718H359.513V57.9894H355.731V73.1902H359.513V65.5541H370.86V73.1902H374.643V65.5541V61.7718V57.9894V54.207H359.513Z" fill="#E3000B"/>
<path d="M86.3986 61.7718H75.0515V57.9894H78.8339H86.3986V54.207H78.8339H71.1978V57.9894V73.1902H75.0515V65.5541H86.3986H90.181V61.7718V57.9894H86.3986V61.7718Z" fill="#020202"/>
<path d="M93.9634 54.207V69.4078V73.1902H112.946V69.4078H97.7457V65.5541H112.946V61.7718H97.7457V57.9894H112.946V54.207H97.7457H93.9634Z" fill="#020202"/>
<path d="M131.929 57.9894L120.511 64.9118V54.207H116.729V73.1902H120.511V69.4078L131.929 62.4141V73.1902H135.712V54.207H131.929V57.9894Z" fill="#020202"/>
<path d="M128.077 50.4258H124.294V54.2081H128.077V50.4258Z" fill="#020202"/>
<path d="M139.495 57.9894V61.7718H143.276V57.9894H147.059V73.1902H150.913V57.9894H154.695V61.7718H158.477V57.9894V54.207H139.495V57.9894Z" fill="#020202"/>
<path d="M211.573 54.207H207.791V73.1902H211.573V57.9894H226.773V54.207H211.573Z" fill="#020202"/>
<path d="M200.155 61.7718H188.808V54.207H185.025V73.1902H188.808V65.5541H200.155V73.1902H204.008V54.207H200.155V61.7718Z" fill="#020202"/>
<path d="M177.461 57.9894L166.043 64.9118V54.207H162.26V73.1902H166.043V69.4078L177.461 62.4141V73.1902H181.243V54.207H177.461V57.9894Z" fill="#020202"/>
</svg>
