<svg width="375" height="115" viewBox="0 0 375 115" fill="none" xmlns="http://www.w3.org/2000/svg">
<path d="M45.2211 47.1419V42.7886H23.5261V47.1419H27.8793V51.4951H40.8677V55.8484H27.8793V60.1304H23.5261V64.4836V73.1902H32.2326V64.4836H45.2211V60.1304H49.5743V47.1419H45.2211Z" fill="#B8BECB"/>
<path d="M23.5261 47.1419V42.7886L1.83105 42.7887V51.4952H19.1728V55.8484H1.83105V73.1903H10.5376V64.4837L23.5261 64.4836V60.1304H27.8793V55.8484V51.4951V47.1419H23.5261Z" fill="#B8BECB"/>
<path d="M245.686 57.9894H257.104V61.7718H245.686V57.9894H241.903V73.1902H245.686V65.5541H260.887V54.207H245.686V57.9894Z" fill="#B8BECB"/>
<path d="M279.869 61.7718H268.451V54.207H264.668V65.5541H279.869V69.4078H264.668V73.1902H283.652V54.207H279.869V61.7718Z" fill="#B8BECB"/>
<path d="M302.563 61.7718H291.216V54.207H287.435V73.1902H291.216V65.5541H302.563V73.1902H306.417V54.207H302.563V61.7718Z" fill="#B8BECB"/>
<path d="M310.2 54.207V73.1902H329.183V69.4078H313.983V65.5541H321.547V61.7718H313.983V57.9894H329.183V54.207H310.2Z" fill="#B8BECB"/>
<path d="M332.965 61.7718H336.748V57.9894H340.531V73.1902H344.312V57.9894H348.095V61.7718H351.878V54.207H332.965V61.7718Z" fill="#B8BECB"/>
<path d="M359.513 54.207V57.9894H370.86V61.7718H359.513V57.9894H355.731V73.1902H359.513V65.5541H370.86V73.1902H374.643V54.207H359.513Z" fill="#B8BECB"/>
<path d="M86.3988 61.7718H75.0517V57.9894H86.3988V54.207H71.198V73.1902H75.0517V65.5541H90.1812V57.9894H86.3988V61.7718Z" fill="#B8BECB"/>
<path d="M93.9635 54.207V73.1902H112.947V69.4078H97.7457V65.5541H112.947V61.7718H97.7457V57.9894H112.947V54.207H93.9635Z" fill="#B8BECB"/>
<path d="M131.929 57.9894L120.511 64.9118V54.207H116.729V73.1902H120.511V69.4078L131.929 62.4141V73.1902H135.712V54.207H131.929V57.9894Z" fill="#B8BECB"/>
<path d="M128.077 50.4247H124.294V54.207H128.077V50.4247Z" fill="#B8BECB"/>
<path d="M139.495 61.7718H143.276V57.9894H147.059V73.1902H150.913V57.9894H154.695V61.7718H158.477V54.207H139.495V61.7718Z" fill="#B8BECB"/>
<path d="M207.791 54.207V73.1902H211.573V57.9894H226.774V54.207H207.791Z" fill="#B8BECB"/>
<path d="M200.155 61.7718H188.808V54.207H185.025V73.1902H188.808V65.5541H200.155V73.1902H204.008V54.207H200.155V61.7718Z" fill="#B8BECB"/>
<path d="M177.461 57.9894L166.043 64.9118V54.207H162.26V73.1902H166.043V69.4078L177.461 62.4141V73.1902H181.243V54.207H177.461V57.9894Z" fill="#B8BECB"/>
</svg>
