<svg width="184" height="115" viewBox="0 0 184 115" fill="none" xmlns="http://www.w3.org/2000/svg">
<path fill-rule="evenodd" clip-rule="evenodd" d="M93.2145 62.0083C93.0082 61.9752 92.801 61.9505 92.5874 61.9265C92.2781 61.8917 92.0458 61.6307 92.0458 61.3194C92.0458 60.9791 92.3217 60.7031 92.6621 60.7031H101.2C101.551 60.7031 101.836 60.9877 101.836 61.3387V61.429C101.836 61.6824 101.655 61.8995 101.406 61.9438C101.12 61.9946 100.83 62.0462 100.539 62.1089C99.4022 62.3563 98.9494 62.9254 98.9494 64.1626C98.9503 65.232 98.96 66.3013 98.9677 67.3706L98.9753 68.6688C98.9764 68.956 98.9771 69.2432 98.9771 69.5304C98.9734 69.5788 98.9649 69.6263 98.9518 69.6724C98.9365 69.7257 98.9151 69.7773 98.8879 69.8255C98.7885 70.0018 98.5928 70.0917 98.4081 70.1746C95.9448 71.2802 93.3933 71.9968 90.6844 71.9862C85.4434 71.9616 81.1281 68.2933 80.0384 62.8619C79.349 59.4272 79.6645 56.1008 81.2801 52.9892C82.3394 50.9612 83.9448 49.3128 85.892 48.2543C87.8391 47.1957 90.0398 46.7745 92.2138 47.0445C93.0359 47.1466 93.8476 47.3278 94.6388 47.5858C95.1638 47.7552 95.6684 47.9987 96.1965 48.2533L96.201 48.2554L96.2267 48.2676C96.6081 48.4518 97.0356 48.2293 97.3075 47.9046C97.4671 47.7139 97.6651 47.5822 97.9089 47.5257C98.4706 47.3957 98.8544 48.0076 98.8544 48.5841V55.2146C98.8544 55.5734 98.5635 55.8642 98.2048 55.8642C97.9282 55.8642 97.6817 55.6892 97.5939 55.427C97.5201 55.2064 97.4486 54.9878 97.3778 54.7714L97.3743 54.7613C97.119 53.9813 96.8723 53.2281 96.5611 52.5068C95.6919 50.4808 94.3656 48.9498 92.1992 48.5276C89.3041 47.977 86.828 49.1787 85.2695 51.8432C84.333 53.4423 83.9007 55.2193 83.6976 57.0657C83.3983 59.786 83.5355 62.4645 84.4778 65.0441C85.3572 67.4473 86.7915 69.3295 89.1931 70.1382C91.206 70.8156 93.1751 70.6022 95.0491 69.5398C95.4333 69.3217 95.6978 69.0526 95.6978 68.5299C95.6978 67.9092 95.71 67.2885 95.7223 66.6679C95.7399 65.7745 95.7576 64.8811 95.7387 63.9878C95.7152 62.9548 95.299 62.4985 94.3305 62.231C93.9623 62.1365 93.5898 62.0623 93.2145 62.0083ZM150.259 48.1687C150.26 48.438 150.438 48.6748 150.696 48.7516C150.75 48.7677 150.804 48.7838 150.858 48.7999C151.381 48.9558 151.886 49.1062 152.395 49.2413C153.283 49.484 153.788 50.115 153.92 51.0367C154.085 52.0594 154.182 53.0927 154.212 54.1298C154.238 56.8111 154.234 59.4924 154.23 62.1745C154.228 63.1632 154.227 64.1518 154.227 65.1407V65.5077C154.227 65.5374 154.209 65.5643 154.181 65.5761C154.149 65.59 154.111 65.5792 154.091 65.5504C153.994 65.414 153.897 65.2835 153.803 65.1469C151.03 61.1673 148.258 57.1866 145.489 53.2049C144.272 51.4545 143.055 49.7039 141.838 47.953C141.75 47.8006 141.625 47.6767 141.475 47.5949C141.325 47.513 141.157 47.4763 140.989 47.4891C139.762 47.505 138.535 47.5034 137.308 47.5018C136.741 47.5011 136.174 47.5004 135.608 47.5015C135.491 47.5015 135.374 47.5091 135.256 47.5167L135.223 47.5188C135.155 47.5229 135.102 47.5791 135.102 47.6471V48.1404C135.102 48.4336 135.298 48.6893 135.582 48.7642C135.785 48.8178 135.982 48.8717 136.176 48.9365C138.404 49.6867 139.134 50.7537 139.134 53.2373V64.6318C139.134 65.5243 139.092 66.4196 139.023 67.3105C138.908 68.7981 138.41 69.4291 137.073 69.8343C136.7 69.944 136.322 70.0397 135.939 70.1363C135.661 70.2066 135.466 70.4573 135.466 70.7446C135.466 71.0925 135.748 71.3746 136.096 71.3746H144.057C144.401 71.3746 144.679 71.0963 144.679 70.7529C144.679 70.4719 144.491 70.2258 144.219 70.1527L143.972 70.0861C143.561 69.9759 143.158 69.8682 142.754 69.7617C141.766 69.5017 141.137 68.8446 140.979 67.7884C140.81 66.7664 140.712 65.7325 140.687 64.6953C140.663 61.7129 140.667 58.7305 140.672 55.7482C140.673 54.7313 140.675 53.7144 140.675 52.6976C140.675 52.6591 140.676 52.6207 140.678 52.581C140.684 52.4341 140.877 52.3767 140.965 52.4943C141.006 52.5488 141.043 52.5996 141.08 52.6512L153.856 70.9107C154.276 71.5124 154.602 71.7355 155.153 71.6721C155.52 71.6301 155.755 71.2794 155.755 70.9107L155.753 66.7329C155.751 62.5745 155.749 58.4155 155.766 54.2565C155.782 53.1266 155.862 51.9988 156.004 50.879C156.108 49.9943 156.589 49.3789 157.452 49.1592C157.557 49.1326 157.662 49.1055 157.766 49.0781C157.879 49.0483 157.992 49.0182 158.105 48.9879C158.308 48.933 158.511 48.8771 158.713 48.8217C158.78 48.8031 158.848 48.7847 158.915 48.7662C159.182 48.6928 159.368 48.4499 159.368 48.1724C159.368 47.8335 159.094 47.5587 158.755 47.5587H150.868C150.531 47.5587 150.258 47.8321 150.259 48.1687ZM177.869 67.0196C177.565 67.5981 177.253 68.1725 176.939 68.7459C176.609 69.3458 176.071 69.646 175.428 69.7897C173.892 70.1355 172.341 70.0799 170.792 70.0243H170.79L170.569 70.0165L170.222 70.0048C168.199 69.9397 167.698 69.386 167.679 67.2534C167.664 65.5456 167.667 63.8379 167.67 62.13L167.672 60.1319C167.682 59.9224 167.862 59.7685 168.072 59.7678C168.142 59.7675 168.212 59.7672 168.281 59.7669L168.685 59.7644L168.816 59.7633L168.986 59.7623C169.674 59.7575 170.354 59.7541 171.034 59.7685C172.317 59.8025 173.109 60.5417 173.489 61.8114C173.511 61.8853 173.532 61.9595 173.553 62.0338L173.584 62.1454C173.599 62.1987 173.613 62.2522 173.628 62.3058C173.672 62.4728 173.715 62.6406 173.757 62.8093L173.838 63.133L173.844 63.1591C173.856 63.2065 173.868 63.254 173.88 63.3015C173.947 63.5725 174.191 63.7615 174.47 63.7615C174.808 63.7615 175.082 63.4873 175.082 63.149V55.1044C175.082 54.7584 174.796 54.4779 174.45 54.4779C174.166 54.4779 173.915 54.6733 173.852 54.9505C173.783 55.2584 173.717 55.5529 173.635 55.8481C173.123 57.6373 172.38 58.2684 170.624 58.3425C169.975 58.3693 169.325 58.3604 168.676 58.3514C168.52 58.3492 168.364 58.3471 168.208 58.3455C167.929 58.3426 167.702 58.1162 167.702 57.8371V53.6258C167.702 51.0208 169.814 48.909 172.419 48.909H173.472C174.315 48.909 174.957 49.3251 175.499 49.9544C176.246 50.7927 176.835 51.7757 177.233 52.8494C177.247 52.8923 177.266 52.9334 177.288 52.9719C177.31 53.0091 177.336 53.044 177.365 53.0759C177.38 53.0925 177.396 53.1081 177.412 53.1228C177.422 53.1312 177.431 53.1391 177.441 53.1469C177.447 53.1521 177.454 53.157 177.461 53.1618C177.48 53.1758 177.501 53.1886 177.521 53.2003C177.555 53.2185 177.592 53.2275 177.63 53.2313C177.653 53.2337 177.677 53.2359 177.7 53.238C178.157 53.2777 178.512 52.8892 178.512 52.4312V50.5042C178.512 48.8776 177.193 47.5589 175.567 47.5589H161.701C161.367 47.5589 161.097 47.8294 161.097 48.163V48.4795C161.097 48.5659 161.155 48.6415 161.238 48.664L161.33 48.6884L161.642 48.771L161.654 48.7737L161.665 48.7769L161.691 48.7838L162.028 48.8727C162.185 48.9144 162.34 48.9563 162.494 48.9996C162.725 49.0643 162.952 49.1318 163.179 49.2058C163.932 49.4518 164.274 50.0473 164.274 50.8669V68.288C164.274 69.2886 163.807 69.8345 162.863 69.9986C162.454 70.0709 162.039 70.1297 161.627 70.1881L161.358 70.2264L161.149 70.2569C161.119 70.2613 161.097 70.287 161.097 70.3174V70.7845C161.097 71.1166 161.366 71.3857 161.698 71.3857H175.547C177.945 71.3857 179.929 69.5209 180.073 67.1268L180.074 67.0991L180.195 65.1008C180.217 64.7332 179.952 64.3852 179.584 64.3843C179.186 64.3834 179.107 64.5467 178.842 65.0992L178.788 65.2121C178.705 65.3829 178.621 65.553 178.536 65.7226L178.434 65.9256L178.374 66.0449L178.304 66.1818L178.222 66.3411L178.162 66.4586C178.065 66.6461 177.968 66.8332 177.869 67.0196ZM71.4102 55.5169L71.4042 55.501C70.4548 52.9058 69.5058 50.3109 68.5665 47.7136C68.3854 47.2139 68.1283 47.1831 67.7193 47.1753C67.3103 47.1677 67.0502 47.2325 66.8734 47.7212C65.1693 52.435 63.446 57.1424 61.704 61.8438C60.997 63.7615 60.2772 65.6744 59.5449 67.5828C59 69.0134 58.0287 69.9025 56.565 70.1392C56.526 70.1456 56.4872 70.1528 56.4485 70.1606C56.165 70.2179 55.9675 70.4787 55.9675 70.7679C55.9675 71.1108 56.2455 71.3888 56.5884 71.3888H63.824C64.1504 71.3888 64.415 71.1242 64.415 70.7978C64.415 70.5248 64.2281 70.2873 63.9618 70.2277C63.871 70.2074 63.7806 70.1874 63.6905 70.1676C63.1722 70.0531 62.6664 69.9413 62.1742 69.7804C61.254 69.4789 61.0057 69.0691 61.2656 68.0963C61.6657 66.5824 62.147 65.0918 62.6282 63.602L62.6709 63.4691C62.7191 63.3145 62.9996 63.1676 63.1749 63.1598C64.548 63.1483 65.9209 63.1465 67.294 63.1454L67.7468 63.1451C68.6024 63.1445 69.458 63.144 70.3136 63.1414C70.5881 63.1414 70.7518 63.2108 70.8482 63.514C71.1446 64.3887 71.4498 65.2601 71.755 66.1313C72.0305 66.9175 72.306 67.7037 72.5749 68.4921C72.867 69.3628 72.7327 69.6566 71.8898 69.8839C71.678 69.9408 71.4645 69.9897 71.2497 70.0342C71.0032 70.0854 70.7552 70.1309 70.5066 70.1766L70.2967 70.2154L70.1709 70.2388C69.9963 70.2716 69.8711 70.4248 69.8711 70.6024V70.7846C69.8711 71.1132 70.1374 71.3795 70.466 71.3795H78.5963C78.9238 71.3795 79.1892 71.1141 79.1892 70.7866C79.1892 70.4732 78.9436 70.2192 78.6354 70.1624C77.092 69.8779 76.2252 68.8141 75.6468 67.1992C74.2557 63.2973 72.8328 59.4065 71.4102 55.5169ZM65.3677 56.0317C65.8229 54.776 67.596 54.77 68.058 56.0232C68.3608 56.8444 68.6618 57.6615 68.9626 58.478L68.9787 58.5222L69.6841 60.4375C69.8952 61.0101 69.4715 61.6179 68.8612 61.6179H64.3798C63.8749 61.6179 63.5234 61.1164 63.6956 60.6418L65.3677 56.0317ZM36.6889 50.7676C36.6889 48.9877 38.1319 47.5447 39.9118 47.5447H53.0752C54.8542 47.5447 56.2972 48.9857 56.2996 50.7648L56.3031 53.3509C56.3035 53.7057 56.0161 53.9935 55.6613 53.9935C55.372 53.9935 55.2508 53.907 55.1528 53.6085C54.7224 52.2956 54.0693 51.0765 53.2262 50.0113C52.6798 49.3201 52.0298 48.8763 51.146 48.8763H48.8565C48.4978 48.8763 48.2069 49.1671 48.2069 49.5258V67.547C48.2069 69.1245 48.5313 69.5606 50.0052 69.9101C50.4043 70.0062 50.8081 70.0843 51.2232 70.1646C51.2574 70.1712 51.2917 70.1778 51.3261 70.1845C51.6074 70.2389 51.8093 70.4857 51.8093 70.7722C51.8093 71.1049 51.5396 71.3746 51.2069 71.3746H41.791C41.4588 71.3746 41.1894 71.1052 41.1894 70.773C41.1894 70.4869 41.3911 70.2404 41.672 70.1861C41.88 70.1459 42.0851 70.1066 42.288 70.0657L42.4044 70.042C42.5117 70.02 42.6184 69.9973 42.7245 69.9738C42.8144 69.9537 42.9042 69.9332 42.9935 69.9116C44.4674 69.559 44.7918 69.1259 44.7918 67.5486V49.5274C44.7918 49.1687 44.5009 48.8779 44.1422 48.8779H41.8527C40.9689 48.8716 40.3189 49.3217 39.7726 50.0129C38.927 51.0758 38.2722 52.2933 37.84 53.6055C37.7421 53.9039 37.6238 53.9905 37.3317 53.9905C36.9767 53.9905 36.6889 53.7027 36.6889 53.3477V50.7676ZM120.112 65.0989C119.455 66.3578 118.736 67.5811 118.029 68.8105C117.717 69.3518 117.232 69.6456 116.652 69.7895C114.845 70.2363 113.022 70.2023 111.202 69.9612C110.395 69.8529 110.033 69.3564 109.923 68.4812C109.889 68.2838 109.867 68.0844 109.858 67.8842L109.853 62.1498C109.848 58.3276 109.843 54.5058 109.858 50.6841C109.858 49.6989 110.245 49.2691 111.145 49.034C111.578 48.9194 112.01 48.8337 112.456 48.7429C112.733 48.6866 112.93 48.4429 112.93 48.1607C112.93 47.8299 112.662 47.5617 112.331 47.5617H104.081C103.738 47.5617 103.46 47.8398 103.46 48.1828C103.46 48.467 103.653 48.7142 103.929 48.7801C104.187 48.8414 104.437 48.9016 104.684 48.9753C106.163 49.4268 106.453 49.8398 106.453 51.4635V62.9077C106.453 63.8692 106.456 64.8312 106.456 65.7929C106.456 66.6207 106.454 67.4484 106.445 68.2754C106.432 69.3502 106.029 69.8389 105.033 70.0338C104.909 70.0583 104.784 70.0799 104.659 70.0996C104.526 70.1205 104.392 70.1392 104.259 70.1571C104.143 70.1726 104.027 70.1873 103.911 70.2021C103.652 70.2351 103.46 70.4557 103.46 70.7168V70.7855C103.46 71.1177 103.729 71.387 104.061 71.387H116.062C118.888 71.387 121.23 69.1961 121.417 66.3764L121.437 66.0716C121.501 65.1131 120.617 64.1272 120.174 64.9798L120.112 65.0989ZM123.587 48.7336C123.391 48.6983 123.25 48.5278 123.25 48.329V48.1652C123.25 47.8264 123.524 47.5518 123.863 47.5518H132.772C133.1 47.5518 133.366 47.8174 133.366 48.145C133.366 48.4291 133.164 48.6733 132.884 48.7238C132.323 48.8251 131.771 48.9192 131.228 49.0566C130.348 49.2824 130.009 49.7354 130.009 50.6927C130.002 56.5179 130.002 62.343 130.009 68.1681C130.01 69.0077 130.384 69.563 131.148 69.795C131.541 69.9116 131.941 70.0039 132.351 70.0934C132.532 70.133 132.716 70.1721 132.901 70.2125C133.17 70.2709 133.36 70.5093 133.36 70.7841C133.36 71.1099 133.096 71.374 132.77 71.374H123.835C123.51 71.374 123.245 71.1099 123.245 70.784C123.245 70.4794 123.477 70.2249 123.78 70.1965L124.798 70.1012C126.117 69.9791 126.61 69.4254 126.61 68.0444V51.1706C126.61 49.8453 126.39 49.5343 125.181 49.1323C124.87 49.0286 124.551 48.936 124.234 48.8617C124.18 48.849 124.125 48.8369 124.07 48.8254C123.982 48.807 123.894 48.7898 123.804 48.7731C123.732 48.7598 123.66 48.7467 123.587 48.7336Z" fill="#B8BECB"/>
<path fill-rule="evenodd" clip-rule="evenodd" d="M3.83944 62.7034L13.684 43.0137L28.7873 53.6506L18.0013 71.0867C17.9468 71.175 17.8735 71.2486 17.7871 71.3013C17.7348 71.3334 17.6784 71.3572 17.6203 71.3722C17.5824 71.382 17.5435 71.3882 17.5043 71.3905L7.31363 71.9845C7.1771 71.9932 7.04148 71.9551 6.927 71.8759C6.81253 71.7967 6.7254 71.6806 6.67855 71.5449L3.80444 63.2488C3.77382 63.1604 3.76106 63.0661 3.76707 62.9721C3.77309 62.8781 3.79769 62.7866 3.83944 62.7034ZM8.90317 68.6372C9.3361 68.9425 9.84504 69.1054 10.3655 69.105C10.7109 69.105 11.0529 69.0331 11.372 68.8933C11.5507 68.8151 11.7202 68.7164 11.8777 68.5994C12.0015 68.5075 12.1178 68.4042 12.2253 68.2906C12.4694 68.0324 12.6632 67.7258 12.7952 67.3886C12.9271 67.0512 12.9951 66.6895 12.9948 66.3246C12.9948 65.7746 12.8405 65.2369 12.5513 64.7797C12.2622 64.3223 11.8511 63.9659 11.3702 63.7556C10.8894 63.5452 10.3604 63.4903 9.84996 63.5977C9.33956 63.705 8.87072 63.9701 8.50287 64.359C8.13501 64.7482 7.88455 65.2436 7.7832 65.7831C7.68185 66.3225 7.73417 66.8818 7.93359 67.3897C8.13283 67.8978 8.47042 68.3319 8.90317 68.6372Z" fill="#B8BECB"/>
</svg>
