<svg width="184" height="115" viewBox="0 0 184 115" fill="none" xmlns="http://www.w3.org/2000/svg">
<path fill-rule="evenodd" clip-rule="evenodd" d="M93.2145 62.0081C93.0083 61.975 92.8011 61.9503 92.5875 61.9263C92.2782 61.8915 92.0459 61.6305 92.0459 61.3193C92.0459 60.9789 92.3218 60.703 92.6622 60.703H101.2C101.551 60.703 101.836 60.9875 101.836 61.3385V61.4289C101.836 61.6822 101.655 61.8994 101.406 61.9436C101.12 61.9945 100.83 62.046 100.539 62.1087C99.4023 62.3561 98.9495 62.9252 98.9495 64.1625C98.9503 65.2318 98.9601 66.3011 98.9678 67.3704L98.971 67.8469L98.9731 68.2195L98.9753 68.6686C98.9765 68.9559 98.9772 69.2431 98.9772 69.5303C98.9735 69.5787 98.9649 69.6261 98.9518 69.6722C98.9366 69.7255 98.9151 69.7771 98.888 69.8253C98.7885 70.0016 98.5928 70.0915 98.4082 70.1744C95.9448 71.28 93.3933 71.9966 90.6845 71.9861C85.4434 71.9614 81.1282 68.2932 80.0385 62.8618C79.3491 59.4271 79.6645 56.1006 81.2801 52.9891C82.3395 50.961 83.9449 49.3127 85.892 48.2542C87.8391 47.1955 90.0398 46.7743 92.2139 47.0444C93.0359 47.1464 93.8476 47.3277 94.6388 47.5857C95.1639 47.7551 95.6685 47.9985 96.1966 48.2531L96.2011 48.2552L96.2267 48.2675C96.6082 48.4516 97.0356 48.2292 97.3075 47.9045C97.4672 47.7138 97.6651 47.582 97.9089 47.5256C98.4706 47.3955 98.8544 48.0074 98.8544 48.584V55.2145C98.8544 55.5732 98.5636 55.8641 98.2048 55.8641C97.9283 55.8641 97.6817 55.6891 97.594 55.4268C97.5202 55.2062 97.4487 54.9876 97.3778 54.7712L97.3743 54.7611C97.1191 53.9811 96.8724 53.2279 96.5611 52.5066C95.692 50.4807 94.3656 48.9496 92.1993 48.5274C89.3042 47.9769 86.8281 49.1786 85.2695 51.843C84.3331 53.4421 83.9007 55.2191 83.6977 57.0655C83.3983 59.7859 83.5355 62.4644 84.4778 65.044C85.3572 67.4471 86.7915 69.3294 89.1931 70.138C91.206 70.8154 93.1751 70.6021 95.0492 69.5397C95.4334 69.3216 95.6978 69.0524 95.6978 68.5297C95.6978 67.909 95.7101 67.2884 95.7223 66.6677C95.7399 65.7743 95.7577 64.881 95.7387 63.9876C95.7153 62.9546 95.299 62.4984 94.3306 62.2308C93.9623 62.1364 93.5899 62.0621 93.2145 62.0081ZM150.259 48.1685C150.26 48.4378 150.438 48.6746 150.696 48.7514C150.75 48.7676 150.804 48.7837 150.858 48.7997C151.381 48.9557 151.886 49.1061 152.395 49.2411C153.283 49.4838 153.788 50.1148 153.92 51.0365C154.085 52.0592 154.182 53.0926 154.212 54.1296C154.238 56.8109 154.234 59.4923 154.23 62.1743C154.228 63.163 154.227 64.1517 154.227 65.1405V65.5075C154.227 65.5373 154.209 65.5642 154.181 65.5759C154.149 65.5898 154.111 65.579 154.091 65.5502C153.994 65.4138 153.897 65.2834 153.803 65.1467C151.03 61.1672 148.258 57.1864 145.489 53.2047C144.272 51.4543 143.055 49.7037 141.838 47.9528C141.75 47.8004 141.625 47.6766 141.475 47.5947C141.325 47.5128 141.157 47.4762 140.989 47.4889C139.762 47.5049 138.535 47.5033 137.308 47.5017C136.741 47.501 136.175 47.5003 135.608 47.5013C135.491 47.5013 135.374 47.5089 135.256 47.5166L135.223 47.5187C135.155 47.5228 135.102 47.579 135.102 47.6469V48.1402C135.102 48.4334 135.298 48.6892 135.582 48.764C135.785 48.8177 135.982 48.8715 136.176 48.9363C138.404 49.6865 139.134 50.7535 139.134 53.2371V64.6317C139.134 65.5241 139.092 66.4195 139.023 67.3103C138.908 68.798 138.41 69.4289 137.073 69.8342C136.7 69.9439 136.322 70.0396 135.939 70.1362C135.661 70.2064 135.466 70.4571 135.466 70.7444C135.466 71.0923 135.748 71.3744 136.096 71.3744H144.058C144.401 71.3744 144.679 71.0961 144.679 70.7528C144.679 70.4717 144.491 70.2256 144.219 70.1525L143.972 70.0859C143.561 69.9757 143.158 69.868 142.754 69.7615C141.766 69.5016 141.137 68.8444 140.979 67.7882C140.81 66.7662 140.712 65.7323 140.687 64.6951C140.663 61.7127 140.667 58.7304 140.672 55.748C140.673 54.7311 140.675 53.7143 140.675 52.6974C140.675 52.659 140.676 52.6205 140.678 52.5808C140.684 52.434 140.877 52.3765 140.965 52.4941C141.006 52.5486 141.043 52.5995 141.08 52.651L153.856 70.9105C154.276 71.5123 154.602 71.7353 155.154 71.672C155.52 71.6299 155.755 71.2793 155.755 70.9105L155.754 69.45L155.754 67.4291L155.753 66.7327C155.751 62.5744 155.749 58.4153 155.766 54.2563C155.782 53.1264 155.862 51.9986 156.004 50.8788C156.108 49.9941 156.589 49.3788 157.452 49.1591C157.557 49.1325 157.662 49.1054 157.767 49.0779C157.88 49.0481 157.992 49.018 158.105 48.9877C158.309 48.9328 158.511 48.877 158.713 48.8215C158.78 48.803 158.848 48.7845 158.915 48.7661C159.182 48.6927 159.369 48.4497 159.369 48.1722C159.369 47.8333 159.094 47.5586 158.755 47.5586H150.868C150.531 47.5586 150.259 47.8319 150.259 48.1685ZM177.87 67.0194C177.565 67.5979 177.253 68.1723 176.939 68.7457C176.609 69.3457 176.071 69.6458 175.428 69.7895C173.892 70.1354 172.341 70.0797 170.792 70.0241H170.79L170.569 70.0163L170.222 70.0046C168.199 69.9396 167.698 69.3859 167.679 67.2533C167.664 65.5454 167.667 63.8377 167.67 62.1298L167.671 61.1566L167.671 60.7786L167.672 60.1317C167.682 59.9222 167.862 59.7683 168.072 59.7676C168.142 59.7673 168.212 59.767 168.281 59.7667L168.685 59.7642L168.816 59.7632L168.986 59.7621C169.674 59.7573 170.354 59.754 171.034 59.7683C172.317 59.8023 173.109 60.5415 173.489 61.8113C173.511 61.8851 173.532 61.9594 173.553 62.0336L173.584 62.1452C173.599 62.1986 173.613 62.2521 173.628 62.3056C173.672 62.4727 173.715 62.6405 173.757 62.8092L173.838 63.1329L173.844 63.1589C173.856 63.2063 173.868 63.2538 173.88 63.3013C173.947 63.5724 174.191 63.7613 174.47 63.7613C174.808 63.7613 175.082 63.4871 175.082 63.1489V55.1043C175.082 54.7583 174.796 54.4778 174.45 54.4778C174.166 54.4778 173.915 54.6731 173.852 54.9503C173.784 55.2583 173.717 55.5528 173.635 55.8479C173.123 57.6371 172.38 58.2683 170.624 58.3423C169.975 58.3691 169.325 58.3602 168.676 58.3512C168.52 58.3491 168.364 58.3469 168.208 58.3454C167.929 58.3424 167.702 58.116 167.702 57.8369V53.6256C167.702 51.0206 169.814 48.9089 172.419 48.9089H173.472C174.315 48.9089 174.957 49.3249 175.499 49.9543C176.247 50.7925 176.835 51.7755 177.233 52.8493C177.247 52.8922 177.266 52.9333 177.288 52.9717C177.31 53.0089 177.336 53.0438 177.365 53.0757C177.38 53.0924 177.396 53.108 177.412 53.1227C177.422 53.131 177.431 53.139 177.441 53.1468C177.447 53.1519 177.454 53.1569 177.461 53.1617C177.48 53.1757 177.501 53.1884 177.522 53.2001C177.555 53.2183 177.592 53.2273 177.63 53.2311C177.653 53.2335 177.677 53.2358 177.7 53.2378C178.157 53.2775 178.512 52.8891 178.512 52.431V50.5041C178.512 48.8774 177.193 47.5587 175.567 47.5587H161.701C161.367 47.5587 161.097 47.8292 161.097 48.1629V48.4793C161.097 48.5657 161.155 48.6414 161.238 48.6638L161.33 48.6883L161.643 48.7709L161.654 48.7735L161.665 48.7767L161.691 48.7836L162.028 48.8726C162.185 48.9142 162.34 48.9562 162.494 48.9994C162.725 49.0641 162.952 49.1316 163.179 49.2057C163.932 49.4516 164.274 50.0471 164.274 50.8668V68.2879C164.274 69.2884 163.807 69.8343 162.863 69.9984C162.454 70.0707 162.039 70.1295 161.627 70.188L161.358 70.2263L161.149 70.2567C161.119 70.2611 161.097 70.2869 161.097 70.3172V70.7844C161.097 71.1164 161.366 71.3856 161.698 71.3856H175.547C177.945 71.3856 179.929 69.5207 180.073 67.1266L180.074 67.099L180.096 66.7402L180.169 65.5311L180.195 65.1007C180.217 64.7331 179.952 64.385 179.584 64.3842C179.186 64.3833 179.107 64.5465 178.842 65.0991L178.788 65.2119C178.705 65.3828 178.621 65.5529 178.536 65.7224L178.434 65.9255L178.374 66.0447L178.304 66.1817L178.223 66.341L178.162 66.4584C178.065 66.6459 177.968 66.833 177.87 67.0194ZM71.4102 55.5168L71.4042 55.5008C70.4549 52.9056 69.5059 50.3108 68.5666 47.7134C68.3855 47.2138 68.1284 47.1829 67.7194 47.1751C67.3103 47.1675 67.0502 47.2324 66.8735 47.721C65.1693 52.4348 63.4461 57.1423 61.704 61.8437C60.997 63.7613 60.2773 65.6742 59.5449 67.5827C59.0001 69.0133 58.0287 69.9024 56.5651 70.1391C56.5261 70.1454 56.4873 70.1526 56.4486 70.1604C56.1651 70.2178 55.9676 70.4785 55.9676 70.7677C55.9676 71.1106 56.2455 71.3886 56.5884 71.3886H63.824C64.1504 71.3886 64.415 71.124 64.415 70.7976C64.415 70.5247 64.2282 70.2871 63.9618 70.2275C63.871 70.2072 63.7806 70.1873 63.6906 70.1674C63.1722 70.053 62.6664 69.9412 62.1743 69.7803C61.2541 69.4787 61.0057 69.0689 61.2657 68.0961C61.6658 66.5823 62.1471 65.0916 62.6282 63.6019L62.671 63.469C62.7191 63.3143 62.9997 63.1674 63.1749 63.1596C64.548 63.1481 65.921 63.1463 67.2941 63.1453L67.7469 63.1449C68.6025 63.1444 69.4581 63.1439 70.3137 63.1412C70.5882 63.1412 70.7519 63.2107 70.8483 63.5138C71.1446 64.3886 71.4498 65.26 71.755 66.1312C72.0306 66.9173 72.3061 67.7035 72.5749 68.492C72.867 69.3627 72.7327 69.6564 71.8899 69.8838C71.6781 69.9406 71.4646 69.9895 71.2498 70.034C71.0032 70.0852 70.7552 70.1308 70.5067 70.1765L70.2967 70.2153L70.171 70.2387C69.9964 70.2715 69.8711 70.4246 69.8711 70.6022V70.7844C69.8711 71.113 70.1375 71.3794 70.4661 71.3794H78.5964C78.9238 71.3794 79.1893 71.1139 79.1893 70.7865C79.1893 70.4731 78.9437 70.219 78.6355 70.1622C77.0921 69.8777 76.2253 68.8139 75.6468 67.1991C74.2557 63.2971 72.8328 59.4063 71.4102 55.5168ZM65.3677 56.0315C65.8229 54.7759 67.5961 54.7699 68.0581 56.023C68.3609 56.8442 68.6619 57.6614 68.9627 58.4779L68.9788 58.522L69.0397 58.6873L69.6841 60.4374C69.8952 61.01 69.4715 61.6178 68.8612 61.6178H64.3798C63.8749 61.6178 63.5234 61.1163 63.6956 60.6417L64.2249 59.1827L65.3677 56.0315ZM36.689 50.7675C36.689 48.9875 38.1319 47.5446 39.9119 47.5446H53.0752C54.8543 47.5446 56.2972 48.9855 56.2996 50.7646L56.3031 53.3507C56.3036 53.7055 56.0161 53.9934 55.6613 53.9934C55.3721 53.9934 55.2508 53.9069 55.1529 53.6083C54.7224 52.2954 54.0694 51.0764 53.2262 50.0111C52.6798 49.3199 52.0298 48.8761 51.1461 48.8761H48.8566C48.4978 48.8761 48.207 49.1669 48.207 49.5257V67.5469C48.207 69.1243 48.5313 69.5604 50.0052 69.91C50.4043 70.006 50.8082 70.0842 51.2232 70.1644C51.2575 70.171 51.2918 70.1777 51.3262 70.1843C51.6075 70.2388 51.8093 70.4855 51.8093 70.772C51.8093 71.1047 51.5396 71.3744 51.2069 71.3744H41.791C41.4588 71.3744 41.1895 71.1051 41.1895 70.7729C41.1895 70.4867 41.3911 70.2403 41.6721 70.1859C41.8801 70.1457 42.0852 70.1064 42.2881 70.0656L42.4045 70.0418C42.5118 70.0198 42.6184 69.9972 42.7246 69.9736C42.8145 69.9536 42.9042 69.933 42.9936 69.9114C44.4675 69.5588 44.7918 69.1258 44.7918 67.5485V49.5272C44.7918 49.1685 44.501 48.8777 44.1423 48.8777H41.8527C40.969 48.8715 40.319 49.3215 39.7726 50.0127C38.9271 51.0757 38.2722 52.2931 37.84 53.6053C37.7421 53.9037 37.6239 53.9903 37.3318 53.9903C36.9767 53.9903 36.689 53.7026 36.689 53.3476V50.7675ZM120.112 65.0987C119.455 66.3576 118.736 67.5809 118.029 68.8104C117.717 69.3517 117.232 69.6455 116.652 69.7893C114.845 70.2362 113.022 70.2022 111.202 69.961C110.395 69.8528 110.033 69.3563 109.924 68.481C109.889 68.2836 109.867 68.0843 109.858 67.8841L109.857 66.2687L109.855 64.1148L109.853 62.1497C109.848 58.3275 109.843 54.5056 109.858 50.6839C109.858 49.6988 110.245 49.2689 111.145 49.0338C111.578 48.9192 112.01 48.8335 112.456 48.7427C112.733 48.6865 112.93 48.4427 112.93 48.1605C112.93 47.8297 112.662 47.5616 112.331 47.5616H104.081C103.738 47.5616 103.46 47.8396 103.46 48.1827C103.46 48.4668 103.653 48.714 103.929 48.7799C104.187 48.8412 104.437 48.9015 104.684 48.9751C106.164 49.4266 106.453 49.8396 106.453 51.4633V62.9075C106.453 63.8691 106.456 64.831 106.456 65.7928C106.457 66.6206 106.454 67.4482 106.445 68.2753C106.432 69.3501 106.029 69.8388 105.033 70.0337C104.909 70.0581 104.784 70.0797 104.659 70.0994C104.526 70.1203 104.392 70.1391 104.259 70.157C104.143 70.1724 104.027 70.1871 103.912 70.202C103.653 70.2349 103.46 70.4555 103.46 70.7166V70.7853C103.46 71.1175 103.729 71.3868 104.061 71.3868H116.062C118.888 71.3868 121.23 69.196 121.417 66.3762L121.434 66.128L121.437 66.0715C121.501 65.1129 120.617 64.127 120.174 64.9797L120.112 65.0987ZM123.587 48.7335C123.391 48.6982 123.25 48.5276 123.25 48.3288V48.165C123.25 47.8263 123.524 47.5516 123.863 47.5516H132.772C133.1 47.5516 133.366 47.8172 133.366 48.1448C133.366 48.429 133.164 48.6732 132.884 48.7236C132.323 48.825 131.771 48.9191 131.228 49.0565C130.348 49.2822 130.009 49.7353 130.009 50.6926C130.002 56.5177 130.002 62.3428 130.009 68.1679C130.01 69.0076 130.384 69.5629 131.148 69.7948C131.541 69.9114 131.941 70.0037 132.351 70.0932C132.532 70.1328 132.716 70.1719 132.901 70.2123C133.17 70.2707 133.36 70.5092 133.36 70.7839C133.36 71.1098 133.096 71.3739 132.77 71.3739H123.836C123.51 71.3739 123.245 71.1097 123.245 70.7838C123.245 70.4793 123.477 70.2247 123.78 70.1963L124.798 70.101C126.117 69.9789 126.61 69.4252 126.61 68.0442V51.1705C126.61 49.8451 126.39 49.5342 125.181 49.1321C124.87 49.0285 124.551 48.9358 124.234 48.8616C124.18 48.8488 124.125 48.8368 124.071 48.8252C123.982 48.8068 123.894 48.7896 123.804 48.773C123.732 48.7597 123.66 48.7466 123.587 48.7335Z" fill="#212529"/>
<path fill-rule="evenodd" clip-rule="evenodd" d="M3.83968 62.7053L13.6842 43.0156L28.7876 53.6526L18.0015 71.0887C17.947 71.1769 17.8737 71.2505 17.7873 71.3032C17.735 71.3353 17.6787 71.3592 17.6205 71.3742C17.5826 71.384 17.5438 71.3901 17.5046 71.3924L7.31388 71.9865C7.17734 71.9951 7.04172 71.9571 6.92725 71.8779C6.81277 71.7987 6.72564 71.6825 6.67879 71.5468L3.80469 63.2507C3.77406 63.1623 3.7613 63.0681 3.76732 62.9741C3.77333 62.8801 3.79794 62.7886 3.83968 62.7053ZM8.90341 68.6392C9.33634 68.9445 9.84528 69.1073 10.3657 69.1069C10.7111 69.1069 11.0531 69.035 11.3723 68.8953C11.5509 68.817 11.7205 68.7184 11.878 68.6013C12.0017 68.5094 12.118 68.4062 12.2256 68.2926C12.4697 68.0344 12.6634 67.7277 12.7954 67.3905C12.9274 67.0531 12.9954 66.6915 12.995 66.3266C12.995 65.7765 12.8408 65.2388 12.5515 64.7816C12.2624 64.3243 11.8513 63.9678 11.3705 63.7575C10.8896 63.5472 10.3606 63.4922 9.85021 63.5997C9.33981 63.707 8.87096 63.9721 8.50311 64.361C8.13526 64.7501 7.88479 65.2455 7.78344 65.785C7.68209 66.3245 7.73441 66.8837 7.93383 67.3917C8.13307 67.8998 8.47067 68.3339 8.90341 68.6392Z" fill="#E1001A"/>
</svg>
